<svg xmlns="http://www.w3.org/2000/svg" version="1" viewBox="0 0 50 50" enable-background="new 0 0 50 50">
    <path style="text-indent:0;text-align:start;line-height:normal;text-transform:none;block-progression:tb;-inkscape-font-specification:Bitstream Vera Sans" d="M 6 0 L 6 1 L 6 49 L 6 50 L 7 50 L 43 50 L 44 50 L 44 49 L 44 15 L 44 14.59375 L 43.71875 14.28125 L 29.71875 0.28125 L 29.40625 0 L 29 0 L 7 0 L 6 0 z M 8 2 L 28 2 L 28 15 L 28 16 L 29 16 L 42 16 L 42 48 L 8 48 L 8 2 z M 30 3.4375 L 40.5625 14 L 30 14 L 30 3.4375 z M 23.6875 19.5 C 22.898577 19.5 22.098555 19.967271 21.75 20.625 C 21.401445 21.282729 21.381139 21.997472 21.46875 22.75 C 21.608754 23.952564 22.172143 25.307388 22.875 26.71875 C 22.528321 27.932452 22.336859 28.988265 21.8125 30.28125 C 21.151867 31.910264 20.343183 33.205253 19.5625 34.5625 C 18.548302 35.049888 17.276427 35.496379 16.53125 36 C 15.699067 36.562424 15.027868 37.074141 14.65625 37.84375 C 14.470441 38.228554 14.382811 38.766835 14.5625 39.25 C 14.742189 39.733165 15.126336 40.064668 15.53125 40.28125 C 16.378623 40.741252 17.377997 40.466436 18.09375 39.96875 C 18.809503 39.471064 19.448579 38.738022 20.09375 37.84375 C 20.424523 37.385266 20.676263 36.631342 21 36.09375 C 22.039517 35.617349 22.786092 35.139696 23.96875 34.71875 C 25.569572 34.148966 27.005604 33.897275 28.5 33.5625 C 29.74419 34.430826 31.056381 35.09375 32.5 35.09375 C 33.316667 35.09375 33.959519 35.05642 34.5625 34.71875 C 35.165481 34.381081 35.5 33.608333 35.5 33 C 35.5 32.51131 35.303775 31.998176 34.96875 31.65625 C 34.633725 31.314324 34.200767 31.116303 33.78125 31 C 32.942216 30.767394 32.008267 30.787315 30.90625 30.90625 C 30.317372 30.9698 29.529828 31.27743 28.875 31.40625 C 28.78199 31.32891 28.686244 31.300877 28.59375 31.21875 C 27.265361 30.039245 26.015324 28.429714 25.09375 26.8125 C 25.02646 26.694414 25.03252 26.618023 24.96875 26.5 C 25.196479 25.622707 25.649865 24.608137 25.75 23.84375 C 25.885375 22.81036 25.924067 21.901763 25.6875 21.09375 C 25.569217 20.689743 25.348552 20.314481 25 20 C 24.651448 19.685519 24.156349 19.5 23.6875 19.5 z M 23.53125 21.5 C 23.535105 21.495127 23.56946 21.5 23.6875 21.5 C 23.6918 21.5063 23.70993 21.51937 23.75 21.65625 C 23.83061 21.931576 23.84526 22.601901 23.78125 23.3125 C 23.7254 23.077204 23.491729 22.69738 23.46875 22.5 C 23.40792 21.977528 23.48567 21.648521 23.53125 21.5625 C 23.55404 21.51949 23.527395 21.504873 23.53125 21.5 z M 24.21875 29.0625 C 24.918279 30.114982 25.708326 31.10795 26.59375 32 C 25.465132 32.305428 24.450356 32.4075 23.3125 32.8125 C 23.007714 32.920983 22.830993 33.074252 22.53125 33.1875 C 22.897157 32.417802 23.330653 31.834119 23.65625 31.03125 C 23.937739 30.337143 23.97896 29.751929 24.21875 29.0625 z M 32.65625 32.875 C 32.912367 32.875411 33.117722 32.90083 33.25 32.9375 C 33.33869 32.96209 33.33155 32.97837 33.375 33 C 33.256541 33.03332 33.062059 33.09375 32.5 33.09375 C 32.285871 33.09375 32.038512 32.950345 31.8125 32.90625 C 32.093252 32.899185 32.400133 32.874589 32.65625 32.875 z" color="#1e1c58" overflow="visible" enable-background="accumulate" font-family="Bitstream Vera Sans"></path>
</svg>
